<svg width="92" height="18" viewBox="0 0 92 18" fill="none" xmlns="http://www.w3.org/2000/svg">
<path d="M8.52447 1.46353C8.67415 1.00287 9.32585 1.00287 9.47553 1.46353L10.9084 5.87336C10.9753 6.07937 11.1673 6.21885 11.3839 6.21885H16.0207C16.505 6.21885 16.7064 6.83865 16.3146 7.12336L12.5633 9.84878C12.3881 9.9761 12.3148 10.2018 12.3817 10.4078L13.8145 14.8176C13.9642 15.2783 13.437 15.6613 13.0451 15.3766L9.29389 12.6512C9.11865 12.5239 8.88135 12.5239 8.70611 12.6512L4.95488 15.3766C4.56303 15.6613 4.03578 15.2783 4.18546 14.8176L5.6183 10.4078C5.68524 10.2018 5.61191 9.9761 5.43667 9.84878L1.68544 7.12336C1.29358 6.83866 1.49497 6.21885 1.97933 6.21885H6.6161C6.83272 6.21885 7.02469 6.07937 7.09163 5.87336L8.52447 1.46353Z" fill="#FF532E"/>
<path d="M27.027 1.379C27.1815 0.928614 27.8185 0.928613 27.973 1.379L29.517 5.88106C29.5863 6.08313 29.7764 6.21885 29.99 6.21885H34.9267C35.4176 6.21885 35.6146 6.85239 35.2102 7.13071L31.2636 9.84716C31.0789 9.97435 31.0014 10.209 31.0742 10.4212L32.5925 14.8481C32.7488 15.3041 32.2331 15.6955 31.836 15.4222L27.7835 12.6328C27.6128 12.5153 27.3872 12.5153 27.2165 12.6328L23.164 15.4222C22.7669 15.6955 22.2512 15.3041 22.4075 14.8481L23.9258 10.4212C23.9986 10.209 23.9211 9.97435 23.7364 9.84716L19.7898 7.13071C19.3854 6.85239 19.5824 6.21885 20.0733 6.21885H25.01C25.2236 6.21885 25.4137 6.08313 25.483 5.88106L27.027 1.379Z" fill="#FF532E"/>
<path d="M45.5245 1.46353C45.6741 1.00287 46.3259 1.00287 46.4755 1.46353L47.9084 5.87336C47.9753 6.07937 48.1673 6.21885 48.3839 6.21885H53.0207C53.505 6.21885 53.7064 6.83865 53.3146 7.12336L49.5633 9.84878C49.3881 9.9761 49.3148 10.2018 49.3817 10.4078L50.8145 14.8176C50.9642 15.2783 50.437 15.6613 50.0451 15.3766L46.2939 12.6512C46.1186 12.5239 45.8814 12.5239 45.7061 12.6512L41.9549 15.3766C41.563 15.6613 41.0358 15.2783 41.1855 14.8176L42.6183 10.4078C42.6852 10.2018 42.6119 9.9761 42.4367 9.84878L38.6854 7.12336C38.2936 6.83866 38.495 6.21885 38.9793 6.21885H43.6161C43.8327 6.21885 44.0247 6.07937 44.0916 5.87336L45.5245 1.46353Z" fill="#FF532E"/>
<path d="M64.027 1.379C64.1815 0.928614 64.8185 0.928613 64.973 1.379L66.517 5.88106C66.5863 6.08313 66.7764 6.21885 66.99 6.21885H71.9267C72.4176 6.21885 72.6146 6.85239 72.2102 7.13071L68.2636 9.84716C68.0789 9.97435 68.0014 10.209 68.0742 10.4212L69.5925 14.8481C69.7488 15.3041 69.2331 15.6955 68.836 15.4222L64.7835 12.6328C64.6128 12.5153 64.3872 12.5153 64.2165 12.6328L60.164 15.4222C59.7669 15.6955 59.2512 15.3041 59.4075 14.8481L60.9258 10.4212C60.9986 10.209 60.9211 9.97435 60.7364 9.84716L56.7898 7.13071C56.3854 6.85239 56.5824 6.21885 57.0733 6.21885H62.01C62.2236 6.21885 62.4137 6.08313 62.483 5.88106L64.027 1.379Z" fill="#FF532E"/>
<path d="M82.5245 1.46353C82.6741 1.00287 83.3259 1.00287 83.4755 1.46353L84.9084 5.87336C84.9753 6.07937 85.1673 6.21885 85.3839 6.21885H90.0207C90.505 6.21885 90.7064 6.83865 90.3146 7.12336L86.5633 9.84878C86.3881 9.9761 86.3148 10.2018 86.3817 10.4078L87.8145 14.8176C87.9642 15.2783 87.437 15.6613 87.0451 15.3766L83.2939 12.6512C83.1186 12.5239 82.8814 12.5239 82.7061 12.6512L78.9549 15.3766C78.563 15.6613 78.0358 15.2783 78.1855 14.8176L79.6183 10.4078C79.6852 10.2018 79.6119 9.9761 79.4367 9.84878L75.6854 7.12336C75.2936 6.83866 75.495 6.21885 75.9793 6.21885H80.6161C80.8327 6.21885 81.0247 6.07937 81.0916 5.87336L82.5245 1.46353Z" fill="#FF532E"/>
</svg>
